# xmcd
#
# Track frame offsets:
# 150
# 15554
# 33439
# 49885
# 63925
# 79083
# 95993
# 111442
# 127652
# 142266
# 158856
# 174889
# 192344
# 208773
# 223972
# 236133
# 250994
# 262832
# 281159
# 292588
# 314095
# 328113
#
# Disc length: 4634 seconds
#
#
# Revision: 0
# Processed by: cddbd v1.5.1PL2 Copyright (c) Steve Scherf et al.
# Submitted via: FreeRIP 2.53 
#
DISCID=52121816
DTITLE=Encontro de Violeiros 2006 Vol.2
DYEAR=2006
DGENRE=Country
TTITLE0=Lourenco and Lourival - Saco de ouro
TTITLE1=Geraldo Viola and Dino Guedes - Desatino
TTITLE2=Jads and Jadson - No som da viola
TTITLE3=Ze Mulato and Cassiano - Meu ceu
TTITLE4=Camoes and Camargo - Golpe da emoçao
TTITLE5=Dino Franco and Amarai - Nelore valente
TTITLE6=Pedro Bento and Ze da Estrada - Gran-fino na cidade
TTITLE7=Tiao Carrero and Paraíso - Prato do dia
TTITLE8=Liu and Leu - O ipe e o prisioneiro (ipe florido)
TTITLE9=Zico and Zeca - Mineirinho não faz feio
TTITLE10=Ronaldo Viola and Praiano - Jeitao caboclo
TTITLE11=Lourenco and Lourival - Franguinho na panela
TTITLE12=Zeze Planeta and Prateado - Apocalipse
TTITLE13=Tonico and Tinoco - Sertao do Laranjinha
TTITLE14=Jaco and Jacozinho - Preto e branco
TTITLE15=Andre and Andrade - Indio sertanejo
TTITLE16=Goiano and Paranaense - O caipira e o lavrador
TTITLE17=Ze Mulato and Cassiano - O homem e a espingarda
TTITLE18=Geraldo Viola and Dino Guedes - Viola perfeita
TTITLE19=Liu and Leu - Legitimo doutor
TTITLE20=Jads and Jadson - Aonde eu chego
TTITLE21=Craveiro and Cravinho - Caçada de onça
EXTD=
EXTT0=
EXTT1=
EXTT2=
EXTT3=
EXTT4=
EXTT5=
EXTT6=
EXTT7=
EXTT8=
EXTT9=
EXTT10=
EXTT11=
EXTT12=
EXTT13=
EXTT14=
EXTT15=
EXTT16=
EXTT17=
EXTT18=
EXTT19=
EXTT20=
EXTT21=
PLAYORDER=
